<svg xmlns="http://www.w3.org/2000/svg" viewBox="0 0 16 16" id="Target-Fill--Streamline-Mingcute-Fill" height="16" width="16">
  <desc>
    Target Fill Streamline Icon: https://streamlinehq.com
  </desc>
  <g fill="none" fill-rule="nonzero">
    <path d="M16 0v16H0V0zM8.395333333333333 15.505333333333333l-0.007333333333333332 0.0013333333333333333 -0.047333333333333324 0.023333333333333334 -0.013333333333333332 0.0026666666666666666 -0.009333333333333332 -0.0026666666666666666 -0.047333333333333324 -0.023333333333333334c-0.006666666666666666 -0.0026666666666666666 -0.012666666666666666 -0.0006666666666666666 -0.016 0.003333333333333333l-0.0026666666666666666 0.006666666666666666 -0.011333333333333334 0.2853333333333333 0.003333333333333333 0.013333333333333332 0.006666666666666666 0.008666666666666666 0.06933333333333333 0.049333333333333326 0.009999999999999998 0.0026666666666666666 0.008 -0.0026666666666666666 0.06933333333333333 -0.049333333333333326 0.008 -0.010666666666666666 0.0026666666666666666 -0.011333333333333334 -0.011333333333333334 -0.2846666666666666c-0.0013333333333333333 -0.006666666666666666 -0.005999999999999999 -0.011333333333333334 -0.011333333333333334 -0.011999999999999999m0.17666666666666667 -0.07533333333333334 -0.008666666666666666 0.0013333333333333333 -0.12333333333333332 0.062 -0.006666666666666666 0.006666666666666666 -0.002 0.007333333333333332 0.011999999999999999 0.2866666666666666 0.003333333333333333 0.008 0.005333333333333333 0.004666666666666666 0.134 0.062c0.008 0.0026666666666666666 0.015333333333333332 0 0.019333333333333334 -0.005333333333333333l0.0026666666666666666 -0.009333333333333332 -0.02266666666666667 -0.4093333333333333c-0.002 -0.008 -0.006666666666666666 -0.013333333333333332 -0.013333333333333332 -0.014666666666666665m-0.4766666666666666 0.0013333333333333333a0.015333333333333332 0.015333333333333332 0 0 0 -0.018 0.004l-0.004 0.009333333333333332 -0.02266666666666667 0.4093333333333333c0 0.008 0.004666666666666666 0.013333333333333332 0.011333333333333334 0.016l0.009999999999999998 -0.0013333333333333333 0.134 -0.062 0.006666666666666666 -0.005333333333333333 0.0026666666666666666 -0.007333333333333332 0.011333333333333334 -0.2866666666666666 -0.002 -0.008 -0.006666666666666666 -0.006666666666666666z" stroke-width="0.6667"></path>
    <path fill="#000000" d="M8 1.3333333333333333c0.5973333333333333 0 1.176 0.07866666666666666 1.7266666666666666 0.226l-1.4173333333333331 1.4166666666666665A2 2 0 0 0 8.026666666666666 3.333333333333333H8a4.666666666666666 4.666666666666666 0 1 0 4.666666666666666 4.666666666666666v-0.026666666666666665c0.128 -0.07999999999999999 0.248 -0.174 0.3566666666666667 -0.2833333333333333l1.4173333333333331 -1.4166666666666665c0.14733333333333332 0.5506666666666666 0.226 1.1293333333333333 0.226 1.7266666666666666 0 3.6819999999999995 -2.9846666666666666 6.666666666666666 -6.666666666666666 6.666666666666666S1.3333333333333333 11.681999999999999 1.3333333333333333 8 4.318 1.3333333333333333 8 1.3333333333333333m-0.27599999999999997 3.344666666666667c0 0.5673333333333332 -0.028 1.1426666666666665 0.0026666666666666666 1.7093333333333334l-0.36 0.36a1.3333333333333333 1.3333333333333333 0 1 0 1.8860000000000001 1.8860000000000001l0.36 -0.36c0.5666666666666667 0.030666666666666665 1.1413333333333333 0.0026666666666666666 1.7093333333333334 0.0026666666666666666a3.333333333333333 3.333333333333333 0 1 1 -3.598 -3.598m4.612 -3.26a0.6666666666666666 0.6666666666666666 0 0 1 0.41133333333333333 0.6153333333333333v1.22h1.2193333333333332a0.6666666666666666 0.6666666666666666 0 0 1 0.47133333333333327 1.138L12.08 6.746666666666666a0.6666666666666666 0.6666666666666666 0 0 1 -0.47133333333333327 0.1953333333333333H10l-1.2186666666666666 1.2193333333333332a0.6666666666666666 0.6666666666666666 0 0 1 -0.9433333333333334 -0.9433333333333334L9.057333333333332 6V4.390666666666666a0.6666666666666666 0.6666666666666666 0 0 1 0.1953333333333333 -0.472l2.3566666666666665 -2.3566666666666665a0.6666666666666666 0.6666666666666666 0 0 1 0.7266666666666667 -0.14466666666666667" stroke-width="0.6667"></path>
  </g>
</svg>